<?xml version="1.0" encoding="utf-8"?><!-- Generator: Adobe Illustrator 22.1.0, SVG Export Plug-In . SVG Version: 6.00 Build 0)  --><svg xmlns="http://www.w3.org/2000/svg" xmlns:xlink="http://www.w3.org/1999/xlink" viewBox="0 0 100 100" width="100px" height="100px"><style type="text/css">.st0{display:none;fill:#89C149;}.st1{fill:#EE3E54;}.st2{fill:#F1BC19;}.st3{fill:#FCE0A2;}.st4{fill:#FBCD59;}.st5{fill:#FFFFFF;}.st6{fill:#127AD8;}.st7{fill:#472B29;}.st8{fill:#FDFCEE;}</style><circle class="st0" cx="15.9" cy="-5.1" r="47.2"/><g><g><g><circle class="st1" cx="13" cy="29" r="2"/></g><g><circle class="st2" cx="77" cy="13" r="1"/></g><g><circle class="st3" cx="50" cy="50" r="37"/></g><g><circle class="st2" cx="83" cy="15" r="4"/></g><g><circle class="st1" cx="87" cy="24" r="2"/></g><g><circle class="st4" cx="81" cy="76" r="2"/></g><g><circle class="st4" cx="15" cy="63" r="4"/></g><g><circle class="st1" cx="25" cy="87" r="2"/></g><g><circle class="st5" cx="18.5" cy="53.5" r="2.5"/></g><g><circle class="st2" cx="21" cy="67" r="1"/></g><g><circle class="st5" cx="80" cy="34" r="1"/></g></g></g><g><g><path class="st6" d="M35,72.3c-4,0-7.3-3.3-7.3-7.3V35c0-4,3.3-7.3,7.3-7.3h30c4,0,7.3,3.3,7.3,7.3v30c0,4-3.3,7.3-7.3,7.3H35z"/></g><g><path class="st7" d="M65,28.4c3.6,0,6.6,3,6.6,6.6v30c0,3.6-3,6.6-6.6,6.6H35c-3.6,0-6.6-3-6.6-6.6V35c0-3.6,3-6.6,6.6-6.6H65     M65,27H35c-4.4,0-8,3.6-8,8v30c0,4.4,3.6,8,8,8h30c4.4,0,8-3.6,8-8V35C73,30.6,69.4,27,65,27L65,27z"/></g></g><g><path class="st8" d="M63.6,68.5H36.5c-2.7,0-4.8-2.2-4.8-4.8V36.3c0-2.7,2.2-4.8,4.8-4.8h27.1c2.7,0,4.8,2.2,4.8,4.8v27.3   C68.4,66.3,66.3,68.5,63.6,68.5z"/></g><g><path class="st7" d="M68.5,47.4c-0.3,0-0.5-0.2-0.5-0.5V43c0-0.3,0.2-0.5,0.5-0.5S69,42.7,69,43v3.9C69,47.2,68.8,47.4,68.5,47.4z"/></g><g><path class="st7" d="M68.5,40.5c-0.3,0-0.5-0.2-0.5-0.5v-2c0-0.3,0.2-0.5,0.5-0.5S69,37.7,69,38v2C69,40.3,68.8,40.5,68.5,40.5z"/></g><g><path class="st7" d="M64,69H36c-2.8,0-5-2.2-5-5V36c0-2.8,2.2-5,5-5h25.4c0.3,0,0.5,0.2,0.5,0.5S61.7,32,61.4,32H36   c-2.2,0-4,1.8-4,4v28c0,2.2,1.8,4,4,4h28c2.2,0,4-1.8,4-4V49.6c0-0.3,0.2-0.5,0.5-0.5s0.5,0.2,0.5,0.5V64C69,66.8,66.8,69,64,69z"/></g><g><path class="st6" d="M60.5,51.6v6.9h-4.1l-0.1-6.9c0-1.7-0.8-3-2.4-3c-1.2,0-1.9,0.8-2.2,1.6c-0.1,0.3-0.1,0.7-0.1,1v7.2h-4.2   c0,0,0.1-11.7,0-12.9h4.2v2c0,0,0,0,0,0h0v0c0.6-1,1.6-2.1,3.9-2.1C58.4,45.5,60.5,47.3,60.5,51.6z"/><path class="st7" d="M60.5,59h-4.1c-0.3,0-0.5-0.2-0.5-0.5l-0.1-6.9c0-0.7-0.2-2.5-1.9-2.5c-1.1,0-1.6,0.9-1.8,1.3   c0,0.1-0.1,0.4-0.1,0.9v7.2c0,0.3-0.2,0.5-0.5,0.5h-4.2c-0.1,0-0.3-0.1-0.4-0.1c-0.1-0.1-0.1-0.2-0.1-0.4c0-0.1,0.1-11.7,0-12.9   c0-0.1,0-0.3,0.1-0.4c0.1-0.1,0.2-0.2,0.4-0.2h4.2c0.3,0,0.5,0.2,0.5,0.5v0.6c0.9-0.8,2-1.2,3.4-1.2c1.6,0,2.8,0.5,3.8,1.4   c1.1,1.1,1.7,2.9,1.7,5.2v6.9C61,58.8,60.8,59,60.5,59z M56.9,58H60v-6.4c0-2-0.5-3.5-1.4-4.5c-0.7-0.7-1.8-1.1-3-1.1   c-2.1,0-3,1-3.5,1.8c-0.2,0.4-0.7,0.4-0.9,0.1c-0.1-0.1-0.1-0.3,0-0.4v-1.4h-3.2c0,2.2,0,9.9,0,11.9h3.2v-6.7   c0-0.5,0.1-0.9,0.2-1.2c0.5-1.2,1.5-1.9,2.7-1.9c1.8,0,2.9,1.3,2.9,3.5L56.9,58z"/></g><g><path class="st6" d="M42.4,39.8c-1.2,0-2,0.8-2,2c0,1.1,0.8,2,2,2h0c1.3,0,2-0.9,2-2C44.4,40.6,43.6,39.8,42.4,39.8z"/><path class="st7" d="M42.4,44.2c-1.5,0-2.5-1-2.5-2.5s1.1-2.5,2.5-2.5c1.4,0,2.5,1,2.5,2.4C44.9,43.2,43.8,44.2,42.4,44.2z    M42.4,40.3c-0.9,0-1.5,0.6-1.5,1.5c0,0.9,0.6,1.5,1.5,1.5c0.9,0,1.6-0.6,1.6-1.5C43.9,40.9,43.3,40.3,42.4,40.3z"/></g><g><rect x="40.4" y="45.6" class="st6" width="4.2" height="12.9"/><path class="st7" d="M44.6,59h-4.2c-0.3,0-0.5-0.2-0.5-0.5V45.6c0-0.3,0.2-0.5,0.5-0.5h4.2c0.3,0,0.5,0.2,0.5,0.5v12.9   C45.1,58.8,44.9,59,44.6,59z M40.9,58h3.2V46.1h-3.2V58z"/></g></svg>