<svg xmlns="http://www.w3.org/2000/svg" xmlns:xlink="http://www.w3.org/1999/xlink" viewBox="0,0,256,256" width="800px" height="800px" fill-rule="nonzero"><g transform="translate(-38.4,-38.4) scale(1.3,1.3)"><g fill="none" fill-rule="nonzero" stroke="none" stroke-width="1" stroke-linecap="butt" stroke-linejoin="miter" stroke-miterlimit="10" stroke-dasharray="" stroke-dashoffset="0" font-family="none" font-weight="none" font-size="none" text-anchor="none" style="mix-blend-mode: normal"><g transform="scale(2.56,2.56)"><path d="M13,27c-1.10457,0 -2,0.89543 -2,2c0,1.10457 0.89543,2 2,2c1.10457,0 2,-0.89543 2,-2c0,-1.10457 -0.89543,-2 -2,-2z" fill="#ee3e54"></path><path d="M77,12c-0.55228,0 -1,0.44772 -1,1c0,0.55228 0.44772,1 1,1c0.55228,0 1,-0.44772 1,-1c0,-0.55228 -0.44772,-1 -1,-1z" fill="#f1bc19"></path><path d="M50,13c-20.43454,0 -37,16.56546 -37,37c0,20.43454 16.56546,37 37,37c20.43454,0 37,-16.56546 37,-37c0,-20.43454 -16.56546,-37 -37,-37z" fill="#fce0a2"></path><path d="M83,11c-2.20914,0 -4,1.79086 -4,4c0,2.20914 1.79086,4 4,4c2.20914,0 4,-1.79086 4,-4c0,-2.20914 -1.79086,-4 -4,-4z" fill="#f1bc19"></path><path d="M87,22c-1.10457,0 -2,0.89543 -2,2c0,1.10457 0.89543,2 2,2c1.10457,0 2,-0.89543 2,-2c0,-1.10457 -0.89543,-2 -2,-2z" fill="#ee3e54"></path><path d="M81,74c-1.10457,0 -2,0.89543 -2,2c0,1.10457 0.89543,2 2,2c1.10457,0 2,-0.89543 2,-2c0,-1.10457 -0.89543,-2 -2,-2zM15,59c-2.20914,0 -4,1.79086 -4,4c0,2.20914 1.79086,4 4,4c2.20914,0 4,-1.79086 4,-4c0,-2.20914 -1.79086,-4 -4,-4z" fill="#fbcd59"></path><path d="M25,85c-1.10457,0 -2,0.89543 -2,2c0,1.10457 0.89543,2 2,2c1.10457,0 2,-0.89543 2,-2c0,-1.10457 -0.89543,-2 -2,-2z" fill="#ee3e54"></path><path d="M18.5,51c-1.38071,0 -2.5,1.11929 -2.5,2.5c0,1.38071 1.11929,2.5 2.5,2.5c1.38071,0 2.5,-1.11929 2.5,-2.5c0,-1.38071 -1.11929,-2.5 -2.5,-2.5z" fill="#ffffff"></path><path d="M21,66c-0.55228,0 -1,0.44772 -1,1c0,0.55228 0.44772,1 1,1c0.55228,0 1,-0.44772 1,-1c0,-0.55228 -0.44772,-1 -1,-1z" fill="#f1bc19"></path><path d="M80,33c-0.55228,0 -1,0.44772 -1,1c0,0.55228 0.44772,1 1,1c0.55228,0 1,-0.44772 1,-1c0,-0.55228 -0.44772,-1 -1,-1z" fill="#ffffff"></path><g><path d="M35,72.3c-4,0 -7.3,-3.3 -7.3,-7.3v-30c0,-4 3.3,-7.3 7.3,-7.3h30c4,0 7.3,3.3 7.3,7.3v30c0,4 -3.3,7.3 -7.3,7.3z" fill="#127ad8"></path><path d="M65,28.4c3.6,0 6.6,3 6.6,6.6v30c0,3.6 -3,6.6 -6.6,6.6h-30c-3.6,0 -6.6,-3 -6.6,-6.6v-30c0,-3.6 3,-6.6 6.6,-6.6h30M65,27h-30c-4.4,0 -8,3.6 -8,8v30c0,4.4 3.6,8 8,8h30c4.4,0 8,-3.6 8,-8v-30c0,-4.4 -3.6,-8 -8,-8z" fill="#472b29"></path></g><g fill="#fdfcee"><path d="M63.6,68.5h-27.1c-2.7,0 -4.8,-2.2 -4.8,-4.8v-27.4c0,-2.7 2.2,-4.8 4.8,-4.8h27.1c2.7,0 4.8,2.2 4.8,4.8v27.3c0,2.7 -2.1,4.9 -4.8,4.9z"></path></g><g fill="#472b29"><path d="M68.5,47.4c-0.3,0 -0.5,-0.2 -0.5,-0.5v-3.9c0,-0.3 0.2,-0.5 0.5,-0.5c0.3,0 0.5,0.2 0.5,0.5v3.9c0,0.3 -0.2,0.5 -0.5,0.5z"></path></g><g fill="#472b29"><path d="M68.5,40.5c-0.3,0 -0.5,-0.2 -0.5,-0.5v-2c0,-0.3 0.2,-0.5 0.5,-0.5c0.3,0 0.5,0.2 0.5,0.5v2c0,0.3 -0.2,0.5 -0.5,0.5z"></path></g><g fill="#472b29"><path d="M64,69h-28c-2.8,0 -5,-2.2 -5,-5v-28c0,-2.8 2.2,-5 5,-5h25.4c0.3,0 0.5,0.2 0.5,0.5c0,0.3 -0.2,0.5 -0.5,0.5h-25.4c-2.2,0 -4,1.8 -4,4v28c0,2.2 1.8,4 4,4h28c2.2,0 4,-1.8 4,-4v-14.4c0,-0.3 0.2,-0.5 0.5,-0.5c0.3,0 0.5,0.2 0.5,0.5v14.4c0,2.8 -2.2,5 -5,5z"></path></g><g><path d="M60.5,51.6v6.9h-4.1l-0.1,-6.9c0,-1.7 -0.8,-3 -2.4,-3c-1.2,0 -1.9,0.8 -2.2,1.6c-0.1,0.3 -0.1,0.7 -0.1,1v7.2h-4.2c0,0 0.1,-11.7 0,-12.9h4.2v2v0v0v0c0.6,-1 1.6,-2.1 3.9,-2.1c2.9,0.1 5,1.9 5,6.2z" fill="#127ad8"></path><path d="M60.5,59h-4.1c-0.3,0 -0.5,-0.2 -0.5,-0.5l-0.1,-6.9c0,-0.7 -0.2,-2.5 -1.9,-2.5c-1.1,0 -1.6,0.9 -1.8,1.3c0,0.1 -0.1,0.4 -0.1,0.9v7.2c0,0.3 -0.2,0.5 -0.5,0.5h-4.2c-0.1,0 -0.3,-0.1 -0.4,-0.1c-0.1,-0.1 -0.1,-0.2 -0.1,-0.4c0,-0.1 0.1,-11.7 0,-12.9c0,-0.1 0,-0.3 0.1,-0.4c0.1,-0.1 0.2,-0.2 0.4,-0.2h4.2c0.3,0 0.5,0.2 0.5,0.5v0.6c0.9,-0.8 2,-1.2 3.4,-1.2c1.6,0 2.8,0.5 3.8,1.4c1.1,1.1 1.7,2.9 1.7,5.2v6.9c0.1,0.4 -0.1,0.6 -0.4,0.6zM56.9,58h3.1v-6.4c0,-2 -0.5,-3.5 -1.4,-4.5c-0.7,-0.7 -1.8,-1.1 -3,-1.1c-2.1,0 -3,1 -3.5,1.8c-0.2,0.4 -0.7,0.4 -0.9,0.1c-0.1,-0.1 -0.1,-0.3 0,-0.4v-1.4h-3.2c0,2.2 0,9.9 0,11.9h3.2v-6.7c0,-0.5 0.1,-0.9 0.2,-1.2c0.5,-1.2 1.5,-1.9 2.7,-1.9c1.8,0 2.9,1.3 2.9,3.5z" fill="#472b29"></path></g><g><path d="M42.4,39.8c-1.2,0 -2,0.8 -2,2c0,1.1 0.8,2 2,2v0c1.3,0 2,-0.9 2,-2c0,-1.2 -0.8,-2 -2,-2z" fill="#127ad8"></path><path d="M42.4,44.2c-1.5,0 -2.5,-1 -2.5,-2.5c0,-1.5 1.1,-2.5 2.5,-2.5c1.4,0 2.5,1 2.5,2.4c0,1.6 -1.1,2.6 -2.5,2.6zM42.4,40.3c-0.9,0 -1.5,0.6 -1.5,1.5c0,0.9 0.6,1.5 1.5,1.5c0.9,0 1.6,-0.6 1.6,-1.5c-0.1,-0.9 -0.7,-1.5 -1.6,-1.5z" fill="#472b29"></path></g><g><path d="M40.4,45.6h4.2v12.9h-4.2z" fill="#127ad8"></path><path d="M44.6,59h-4.2c-0.3,0 -0.5,-0.2 -0.5,-0.5v-12.9c0,-0.3 0.2,-0.5 0.5,-0.5h4.2c0.3,0 0.5,0.2 0.5,0.5v12.9c0,0.3 -0.2,0.5 -0.5,0.5zM40.9,58h3.2v-11.9h-3.2z" fill="#472b29"></path></g></g></g></g></svg>